<svg xmlns="http://www.w3.org/2000/svg" viewBox="0 0 100 100" fill="none">
  <!-- Outer Shield Boundary with Top Castle Crenellations -->
  <path d="M 20 28 L 35 28 L 35 22 L 45 22 L 45 28 L 55 28 L 55 22 L 65 22 L 65 28 L 80 28 L 80 52 C 80 72 50 88 50 88 C 50 88 20 72 20 52 Z" 
        stroke="#5cbdb9" stroke-width="4.5" stroke-linecap="round" stroke-linejoin="round" fill="none" />
  <!-- Inner Stylized "G" Gate Emblem -->
  <path d="M 68 50 C 68 38 58 36 50 36 C 40 36 34 42 34 52 C 34 62 42 70 50 70 C 60 70 68 62 68 54 L 52 54" 
        stroke="#e8edf3" stroke-width="4" stroke-linecap="round" stroke-linejoin="round" fill="none" />
  <!-- Gate Vertical Bars Motif inside G -->
  <line x1="42" y1="44" x2="42" y2="52" stroke="#3b6fa0" stroke-width="2.5" stroke-linecap="round" />
  <line x1="46" y1="42" x2="46" y2="52" stroke="#3b6fa0" stroke-width="2.5" stroke-linecap="round" />
  <line x1="50" y1="40" x2="50" y2="52" stroke="#3b6fa0" stroke-width="2.5" stroke-linecap="round" />
</svg>
